<?xml version="1.0" encoding="utf-8"?>
<svg version="1.1" id="Layer_1" xmlns="http://www.w3.org/2000/svg" xmlns:xlink="http://www.w3.org/1999/xlink" x="0px" y="0px"
	 viewBox="0 0 180 56" style="enable-background:new 0 0 180 56;" xml:space="preserve">
<style type="text/css">
	.st0{fill:#F15C22;}
	.st1{fill-rule:evenodd;clip-rule:evenodd;fill:#F15C22;}
	.st2{fill-rule:evenodd;clip-rule:evenodd;fill:#818385;}
	.st3{clip-path:url(#SVGID_2_light);fill:url(#SVGID_3_light)}
</style>
<g>
	<path fill="#1a1a1a" d="M176.6,0.2v23.7c0,0.9,0.1,1.6,0.2,2c0.1,0.5,0.4,0.8,0.9,1.1v5.3h-10.9V27c0.5-0.3,0.8-0.7,0.9-1.1c0.1-0.4,0.2-1,0.2-1.8
		V8.6c0-0.9-0.1-1.6-0.2-2c-0.1-0.5-0.4-0.8-0.9-1.1V0.2H176.6z M155.8,32.2v-1.8c-0.9,0.8-1.9,1.4-2.8,1.7c-1,0.4-2,0.5-3.2,0.5
		c-1.3,0-2.5-0.3-3.5-0.8c-1-0.5-1.8-1.3-2.3-2.3c-0.5-1-0.8-2.2-0.8-3.6c0-1.5,0.3-2.7,0.8-3.6c0.5-0.9,1.3-1.7,2.2-2.2
		c0.9-0.5,2.2-1.1,3.7-1.6l5.6-1.8v-0.8c0-1.6-0.5-2.3-1.5-2.3c-1.1,0-1.7,0.8-1.7,2.3v1h-8.2v-5.8c2.6-1.9,5.9-2.8,10-2.9l10.1,8
		c0,0.3,0,0.6,0,1v6.6c0,0.9,0.1,1.5,0.2,2c0.1,0.4,0.4,0.8,0.9,1.2v5.3H155.8z M155.5,25.4v-3.2c-0.4,0.1-0.8,0.3-1.3,0.5
		c-0.5,0.2-0.9,0.3-1.2,0.5c-0.3,0.2-0.6,0.4-0.8,0.7c-0.2,0.3-0.3,0.6-0.3,1c0,0.3,0.1,0.7,0.3,1c0.2,0.3,0.5,0.5,0.9,0.5
		C153.9,26.3,154.7,26,155.5,25.4z M138.6,1.6v7.1h2.9V14h-2.9v9c0,0.8,0,1.3,0.1,1.7c0,0.4,0.1,0.7,0.3,1c0.2,0.3,0.5,0.5,0.8,0.7
		c0.4,0.2,0.9,0.3,1.7,0.4v5.3l-4.4,0.3c-0.2,0-0.5,0-0.9,0c-2.2,0-3.8-0.6-4.9-1.7c-0.5-0.5-0.8-1-1-1.5c-0.2-0.5-0.3-1.1-0.4-1.8
		c-0.1-0.6-0.1-1.5-0.1-2.6V14h-1.1V8.7h1.1V4.1L138.6,1.6z M116.6,0.1h6.1l-4.8,5.8h-4.2L116.6,0.1z M118.6,17v-0.9
		c0-1.6-0.6-2.4-1.7-2.4c-0.7,0-1.1,0.2-1.3,0.7c-0.2,0.5-0.3,1-0.3,1.7V17H118.6z M106.5,23.6v-6.4c0-1.7,0.2-3.1,0.5-4.2
		c0.3-1.1,0.9-2.1,1.6-2.7c0.8-0.7,1.8-1.2,3.1-1.5c1.3-0.3,3-0.5,4.9-0.5c0.1,0,0.2,0,0.3,0l10.2,8.1c0,0.2,0,0.3,0,0.5v5.5h-12
		v2.2c0,0.8,0.1,1.4,0.3,1.9c0.2,0.5,0.6,0.8,1.3,0.8c0.7,0,1.1-0.2,1.3-0.7c0.2-0.5,0.3-1.1,0.3-1.9v-0.9h8.7v5.9
		c-0.9,0.8-2.2,1.5-3.8,2c-1.6,0.5-3.4,0.9-5.3,1c-0.7,0-1.3,0.1-1.6,0.1c-1.5,0-2.9-0.2-4.2-0.5c-1.3-0.3-2.4-0.8-3.2-1.4
		c-1.1-0.8-1.8-1.8-2.1-3C106.6,26.8,106.5,25.4,106.5,23.6z M84.8,0.2l3.3,13.1h0.1l3.3-13.1h12.1v5.7c-0.4,0.3-0.7,0.6-0.9,1.1
		c-0.1,0.4-0.2,1.1-0.2,2v14.4c0,0.9,0.1,1.5,0.2,2c0.1,0.4,0.4,0.8,0.9,1.1v5.7H92.1v-5.7c0.5-0.3,0.7-0.7,0.9-1.1
		c0.1-0.4,0.2-1.1,0.2-2v-8.6h-0.1l-4.3,17.4h-3.1l-4.5-17.4h-0.1v8.6c0,0.9,0.1,1.5,0.2,2c0.1,0.4,0.4,0.8,0.9,1.1v5.7h-9.8v-5.7
		c0.5-0.3,0.8-0.7,0.9-1.1c0.1-0.4,0.2-1.1,0.2-2V9c0-0.9-0.1-1.6-0.2-2c-0.1-0.5-0.4-0.8-0.9-1.1V0.2H84.8z"/>
	<path class="st0" d="M148.3,53.3c0.8-0.4,1.3-1.4,1.4-3.1c-0.2,0.1-0.6,0.2-1.1,0.2c-0.5,0-0.9-0.2-1.3-0.5
		c-0.4-0.3-0.7-0.8-0.9-1.4c-0.2-0.6-0.4-1.3-0.5-2.1c-0.1-0.8-0.2-1.7-0.2-2.6c0-0.9,0.1-1.7,0.2-2.4c0.2-0.8,0.4-1.4,0.6-2
		c0.3-0.6,0.6-1,1-1.3c0.4-0.3,0.8-0.5,1.2-0.5c0.4,0,0.8,0.1,1.1,0.3v-0.2h2v10.7c0,0.9-0.1,1.8-0.2,2.7c-0.1,0.8-0.4,1.6-0.6,2.3
		c-0.3,0.7-0.6,1.2-1,1.7c-0.4,0.5-0.9,0.8-1.5,0.9L148.3,53.3z M130.4,35l-2-2.3v17.6h2V35z M134.7,39.9c-0.4,0-0.7,0.4-0.9,1.1
		c-0.2,0.8-0.3,1.7-0.3,2.9c0,2.6,0.4,3.9,1.2,3.9c0.8,0,1.2-1.3,1.2-3.9C135.8,41.3,135.4,39.9,134.7,39.9z M134.7,50.4
		c-1,0-1.8-0.6-2.3-1.7c-0.6-1.1-0.8-2.7-0.8-4.8c0-0.9,0.1-1.8,0.2-2.6c0.2-0.8,0.4-1.5,0.6-2.1c0.3-0.6,0.6-1,1-1.4
		c0.4-0.3,0.8-0.5,1.3-0.5c0.5,0,0.9,0.2,1.3,0.5c0.4,0.3,0.7,0.8,1,1.4c0.3,0.6,0.5,1.3,0.6,2.1c0.2,0.8,0.2,1.7,0.2,2.6
		c0,2-0.3,3.5-0.8,4.7C136.5,49.8,135.7,50.4,134.7,50.4z M142.7,42.4c0-1.7-0.3-2.5-0.9-2.5c-0.3,0-0.5,0.2-0.7,0.6
		c-0.2,0.4-0.3,1.1-0.3,1.9v7.9h-2V37.6h2v0.4c0.3-0.4,0.8-0.6,1.5-0.6c0.7,0,1.3,0.4,1.7,1.2c0.4,0.8,0.7,1.9,0.7,3.2v8.3h-2V42.4z
		 M149.8,42.3c0-0.9-0.1-1.5-0.3-1.9c-0.2-0.4-0.3-0.5-0.5-0.5c-0.5,0-0.8,0.3-1,1c-0.2,0.7-0.3,1.6-0.3,2.9c0,1.3,0.1,2.3,0.2,3.1
		c0.2,0.7,0.4,1.1,0.8,1.1c0.7,0,1-0.7,1-2.2V42.3z M156.9,49.9c-0.4,0.4-0.9,0.5-1.4,0.5c-0.7,0-1.3-0.4-1.8-1.2
		c-0.4-0.8-0.7-1.9-0.7-3.2v-8.4h2v7.5c0,0.8,0.1,1.5,0.2,2c0.1,0.5,0.4,0.8,0.6,0.8c0.3,0,0.5-0.3,0.7-0.8c0.2-0.5,0.3-1.2,0.3-2
		v-7.5h2v12.7h-2V49.9z M163.3,39.7c-0.3,0-0.6,0.3-0.8,0.9c-0.2,0.6-0.3,1.4-0.4,2.3h2.3c0-0.9-0.1-1.7-0.3-2.3
		C163.8,40,163.6,39.7,163.3,39.7z M162.1,45.4c0,0.8,0.1,1.4,0.4,1.9c0.3,0.5,0.5,0.7,0.8,0.7c0.1,0,0.3-0.1,0.5-0.3
		c0.2-0.2,0.4-0.6,0.6-1.1l1.3,2.1c-0.3,0.6-0.6,1.1-1,1.4c-0.4,0.3-0.9,0.4-1.4,0.4c-1.1,0-1.9-0.6-2.4-1.7
		c-0.5-1.1-0.8-2.7-0.8-4.7c0-2.1,0.3-3.7,0.9-5c0.6-1.2,1.4-1.8,2.4-1.8c0.9,0,1.7,0.6,2.2,1.7c0.6,1.1,0.8,2.8,0.8,4.9v0.7
		c0,0.1,0,0.2,0,0.4c0,0.1,0,0.3,0,0.4L162.1,45.4L162.1,45.4z M171.3,49.9c-0.4,0.4-0.9,0.5-1.4,0.5c-0.7,0-1.3-0.4-1.8-1.2
		c-0.4-0.8-0.7-1.9-0.7-3.2v-8.4h2v7.5c0,0.8,0.1,1.5,0.2,2c0.1,0.5,0.4,0.8,0.6,0.8c0.3,0,0.5-0.3,0.7-0.8c0.2-0.5,0.3-1.2,0.3-2
		v-7.5h2v12.7h-2V49.9z M174.6,37.6h2v12.7h-2V37.6z M178,35l2-2.3v17.6h-2V35z"/>
	<path class="st1" d="M55.2,15.2l0,34.8L41.9,35l0-34.8L55.2,15.2z M28,15.2l0,34.8L41.2,35l0-34.8L28,15.2z M0,15.2l0,34.8L13.3,35
		l0-34.8L0,15.2z M27.2,15.2l0,34.8L13.9,35l0-34.8L27.2,15.2z"/>
	<polygon class="st2" points="69.2,35.4 69.2,0.6 55.9,15.5 55.9,50.3 	"/>
	<g>
		<defs>
			<polygon id="SVGID_1_light" points="88.4,51.6 56.8,50.3 70,35.6 102.6,35.6 			"/>
		</defs>
		<clipPath id="SVGID_2_light">
			<use xlink:href="#SVGID_1_light" style="overflow:visible;"/>
		</clipPath>
		<linearGradient id="SVGID_3_light" gradientUnits="userSpaceOnUse" x1="-307.1455" y1="336.8142" x2="-306.3558" y2="336.8142" gradientTransform="matrix(53.7441 24.4294 -17.855 39.2805 22579.3164 -5693.0488)">
			<stop offset="0" style="stop-color:#818385"/>
			<stop offset="1" style="stop-color:#d1d5db"/>
		</linearGradient>
		<polygon class="st3" points="50.8,48.8 94.8,68.8 108.7,38.3 64.6,18.3 		"/>
	</g>
</g>
</svg>
